<svg width="16" height="17" viewBox="0 0 16 17" fill="none" xmlns="http://www.w3.org/2000/svg">
<path d="M8 16.5C5.76667 16.5 3.875 15.725 2.325 14.175C0.775 12.625 0 10.7333 0 8.5C0 6.26667 0.775 4.375 2.325 2.825C3.875 1.275 5.76667 0.5 8 0.5C9.15 0.5 10.25 0.7375 11.3 1.2125C12.35 1.6875 13.25 2.36667 14 3.25V0.5H16V7.5H9V5.5H13.2C12.6667 4.56667 11.9375 3.83333 11.0125 3.3C10.0875 2.76667 9.08333 2.5 8 2.5C6.33333 2.5 4.91667 3.08333 3.75 4.25C2.58333 5.41667 2 6.83333 2 8.5C2 10.1667 2.58333 11.5833 3.75 12.75C4.91667 13.9167 6.33333 14.5 8 14.5C9.28333 14.5 10.4417 14.1333 11.475 13.4C12.5083 12.6667 13.2333 11.7 13.65 10.5H15.75C15.2833 12.2667 14.3333 13.7083 12.9 14.825C11.4667 15.9417 9.83333 16.5 8 16.5Z" fill="#9B0D00"/>
</svg>
